<svg width="181" height="22" viewBox="0 0 181 22" fill="none" xmlns="http://www.w3.org/2000/svg">
<path d="M0.499939 0.834961H13.5758C14.5514 0.834961 15.3238 0.997561 15.8793 1.30921C17.3563 1.82412 18.088 3.43659 18.088 6.16017V8.15205C18.088 10.1168 17.1124 11.0924 15.1612 11.0924C17.1124 11.0924 18.088 12.068 18.088 14.0328V16.0247C18.088 16.8242 18.0202 17.6371 17.8983 18.4637C17.3021 20.3878 15.8658 21.3499 13.5758 21.3499H0.499939V0.834961ZM10.256 8.72115C10.9335 8.72115 11.2723 8.3553 11.2723 7.61004V6.71572C11.2723 5.97046 10.9335 5.60461 10.256 5.60461H7.31565V8.72115H10.256ZM7.31565 13.4773V16.5938H10.256C10.9335 16.5938 11.2723 16.2279 11.2723 15.4827V14.5884C11.2723 13.8431 10.9335 13.4773 10.256 13.4773H7.31565Z" fill="#FF0000"/>
<path d="M31.7865 0.834961H38.6022V16.0382C38.6022 16.8377 38.5345 17.6507 38.4125 18.4773C37.8163 20.4014 36.38 21.3634 34.09 21.3634H25.5263C23.2364 21.3634 21.8001 20.4014 21.2039 18.4773C21.0819 17.6507 21.0142 16.8512 21.0142 16.0382V0.834961H27.8299V15.4827C27.8299 16.2279 28.1686 16.5938 28.8461 16.5938H30.7838C31.4613 16.5938 31.8001 16.2279 31.8001 15.4827V0.834961H31.7865Z" fill="#FF0000"/>
<path d="M45.3775 13.0843L39.2528 0.834961H45.7569L48.8192 7.24418L51.9899 0.834961H58.3043V0.916259L52.1932 13.0572V21.3499H45.3775V13.0843Z" fill="#FF0000"/>
<path d="M73.1832 13.2876V21.3499H66.3675V0.834961H82.4922V5.60461H73.1832V8.8973H81.0288V13.2876H73.1832Z" fill="#FF0000"/>
<path d="M95.5412 0.834961H102.357V16.0382C102.357 16.8377 102.289 17.6507 102.167 18.4773C101.571 20.4014 100.135 21.3634 97.8448 21.3634H89.2811C86.9911 21.3634 85.5548 20.4014 84.9586 18.4773C84.8366 17.6507 84.7689 16.8512 84.7689 16.0382V0.834961H91.5846V15.4827C91.5846 16.2279 91.9234 16.5938 92.6009 16.5938H94.5385C95.216 16.5938 95.5548 16.2279 95.5548 15.4827V0.834961H95.5412Z" fill="#FF0000"/>
<path d="M108.942 5.59071H104.281V0.821045H120.405V5.59071H115.758V21.3495H108.942V5.59071Z" fill="#FF0000"/>
<path d="M134.117 0.834961H140.933V16.0382C140.933 16.8377 140.865 17.6507 140.743 18.4773C140.147 20.4014 138.711 21.3634 136.421 21.3634H127.857C125.567 21.3634 124.131 20.4014 123.535 18.4773C123.413 17.6507 123.345 16.8512 123.345 16.0382V0.834961H130.161V15.4827C130.161 16.2279 130.5 16.5938 131.177 16.5938H133.115C133.792 16.5938 134.131 16.2279 134.131 15.4827V0.834961H134.117Z" fill="#FF0000"/>
<path d="M151.462 13.4637H150.676V21.3499H143.86V0.834961H156.936C157.912 0.834961 158.684 0.997561 159.24 1.30921C160.717 1.82412 161.448 3.43659 161.448 6.16017V8.15205C161.448 8.95151 161.381 9.76451 161.259 10.5911C160.825 12.0138 159.917 12.9082 158.576 13.274L162.031 21.3634H154.849L151.462 13.4773V13.4637ZM150.676 5.59107V8.7076H153.616C154.294 8.7076 154.633 8.34174 154.633 7.59649V6.70218C154.633 5.95692 154.294 5.59107 153.616 5.59107H150.676Z" fill="#FF0000"/>
<path d="M171.191 8.8973H179.037V13.2876H171.191V16.5802H180.5V21.3499H164.375V0.834961H180.5V5.60461H171.191V8.8973Z" fill="#FF0000"/>
</svg>
