<svg width="59" height="67" viewBox="0 0 59 67" fill="none" xmlns="http://www.w3.org/2000/svg">
<path d="M0.985214 17.2927V66.9989L29.7062 50.4323V0.726074L0.985214 17.2927ZM22.0091 25.6211L8.68237 33.3118V24.5196C8.68237 23.5985 9.1719 22.7419 9.9706 22.2845L18.138 17.5761C19.8577 16.5841 22.0091 17.8273 22.0091 19.8112V25.6211ZM22.0091 46.0588L8.68237 53.7495V44.9638C8.68237 44.0427 9.17834 43.186 9.97704 42.7223L18.1315 38.0138C19.8577 37.0219 22.0091 38.265 22.0091 40.2553V46.0588Z" fill="#FF0000"/>
<path d="M44.7979 46.7544C44.7979 43.7722 48.0249 41.9107 50.6078 43.3986L58.0087 47.6691V37.2795L44.8043 29.6596V24.8739C44.8043 22.4456 47.4259 20.9319 49.5321 22.1428L58.0151 27.0381V17.0543L29.7063 0.726074V50.4194L44.7979 59.0827V46.7544Z" fill="#D60F0F"/>
</svg>
